<svg width="213" height="34" viewBox="0 0 213 34" fill="none" xmlns="http://www.w3.org/2000/svg">
<g clip-path="url(#clip0_12497_2369)">
<path d="M187.55 10.0093H184.172V26.6247H187.55V10.0093Z" fill="#FE763C"/>
<path d="M169.569 10.7298C168.771 10.2538 167.869 10.0115 166.884 10.0115H160.201C159.067 10.0115 157.991 10.2308 157.004 10.6618C156.019 11.0928 155.142 11.6981 154.394 12.4581C153.648 13.2192 153.058 14.1097 152.639 15.1C152.221 16.0924 152.008 17.1759 152.008 18.3186C152.008 19.4614 152.221 20.5437 152.639 21.5373C153.058 22.5298 153.648 23.4181 154.394 24.1792C155.14 24.9402 156.018 25.5456 157.004 25.9766C157.991 26.4076 159.065 26.6269 160.201 26.6269H169.983V23.3534H160.201C159.216 23.3534 158.318 23.0825 157.534 22.5495C156.817 22.0615 156.253 21.4397 155.856 20.6973H166.884C167.869 20.6973 168.771 20.4549 169.569 19.979C170.363 19.503 171.004 18.8527 171.478 18.0423C171.952 17.2319 172.191 16.3271 172.191 15.3555C172.191 14.3838 171.952 13.4539 171.478 12.6522C171.006 11.8528 170.363 11.2057 169.57 10.7298H169.569ZM160.201 13.285H166.884C167.456 13.285 167.93 13.4835 168.336 13.8925C168.743 14.3005 168.939 14.7808 168.939 15.3555C168.939 15.9301 168.741 16.4094 168.336 16.8184C167.932 17.2264 167.456 17.426 166.884 17.426H155.346C155.474 16.6912 155.754 16.0168 156.175 15.4158C156.63 14.7655 157.213 14.2424 157.906 13.8607C158.595 13.4791 159.367 13.2861 160.201 13.2861V13.285Z" fill="#FE763C"/>
<path d="M178.54 22.7437C178.143 22.3543 177.951 21.8981 177.951 21.3487V4.47119H174.598V21.3487C174.598 22.3291 174.841 23.2273 175.319 24.0169C175.794 24.8065 176.448 25.4447 177.261 25.9141C178.074 26.3835 178.981 26.6236 179.955 26.6236H180.895V23.3216H179.955C179.398 23.3216 178.934 23.133 178.54 22.7437Z" fill="#FE763C"/>
<path d="M195.886 10.0092H191.089L199.661 18.3448L191.086 26.6235H195.887L201.987 20.605L208.205 26.6235H213.003L195.886 10.0081V10.0092Z" fill="#FE763C"/>
<path d="M99.7745 10.7298C98.9783 10.2538 98.0747 10.0115 97.091 10.0115H90.408C89.274 10.0115 88.1982 10.2308 87.2112 10.6618C86.2264 11.0928 85.348 11.6981 84.6012 12.4581C83.8554 13.2192 83.2654 14.1097 82.8465 15.1C82.4276 16.0924 82.2148 17.1759 82.2148 18.3186C82.2148 19.4614 82.4276 20.5437 82.8465 21.5373C83.2654 22.5298 83.8554 23.4181 84.6012 24.1792C85.3469 24.9402 86.2253 25.5456 87.2112 25.9766C88.1982 26.4076 89.2718 26.6269 90.408 26.6269H100.19V23.3534H90.408C89.4232 23.3534 88.525 23.0825 87.7398 22.5495C87.0226 22.0615 86.4589 21.4397 86.063 20.6973H97.091C98.0758 20.6973 98.9783 20.4549 99.7745 19.979C100.568 19.503 101.21 18.8527 101.684 18.0423C102.158 17.2319 102.397 16.3271 102.397 15.3555C102.397 14.3838 102.155 13.4539 101.684 12.6522C101.212 11.8528 100.568 11.2057 99.7756 10.7298H99.7734H99.7745ZM90.4069 13.2378H97.0899C97.6623 13.2378 98.1361 13.4363 98.5418 13.8454C98.9487 14.2533 99.1439 14.7337 99.1439 15.3083C99.1439 15.883 98.9454 16.3622 98.5418 16.7713C98.135 17.1792 97.6612 17.3788 97.0899 17.3788H85.552C85.6803 16.644 85.9599 15.9696 86.381 15.3686C86.8361 14.7183 87.4185 14.1952 88.1116 13.8136C88.8014 13.4319 89.5734 13.2389 90.4069 13.2389V13.2378Z" fill="#FE763C"/>
<path d="M122.883 12.6488C122.411 11.8482 121.768 11.2023 120.975 10.7264C120.179 10.2504 119.275 10.0081 118.291 10.0081H106.361V13.2816H118.291C118.864 13.2816 119.337 13.4801 119.743 13.8891C120.15 14.2971 120.345 14.7774 120.345 15.3521V15.9388H108.721C107.755 15.9388 106.858 16.1811 106.052 16.6571C105.247 17.133 104.6 17.779 104.127 18.5795C103.653 19.3812 103.414 20.2903 103.414 21.2828C103.414 22.2752 103.655 23.1844 104.127 23.986C104.598 24.7855 105.247 25.4325 106.052 25.9085C106.856 26.3844 107.755 26.6268 108.721 26.6268H123.597V15.3553C123.597 14.3651 123.356 13.4537 122.884 12.6521L122.882 12.6499L122.883 12.6488ZM108.722 23.35C108.151 23.35 107.676 23.1515 107.27 22.7424C106.863 22.3345 106.668 21.8563 106.668 21.2795C106.668 20.7026 106.866 20.2256 107.27 19.8165C107.677 19.4086 108.151 19.209 108.722 19.209H120.346V23.3478H108.722V23.35Z" fill="#FE763C"/>
<path d="M148.349 26.5777H143.957V20.6601C143.957 18.6269 145.927 16.9797 148.349 16.9797V26.5799V26.5777Z" fill="#FE763C"/>
<path d="M127.238 4.43823H131.629V8.12409C131.629 10.1573 129.661 11.8034 127.238 11.8034V4.43823Z" fill="#FE763C"/>
<path d="M143.966 4.42639V10.0347L142.197 10.7135C142.162 10.7278 142.126 10.742 142.089 10.7563L128.7 15.8985C127.795 16.2472 127.215 17.0017 127.215 17.8374V26.5777H131.606V20.5516C131.606 20.4979 131.606 20.4452 131.612 20.3937V18.82L133.479 18.1017C133.479 18.1017 133.486 18.0995 133.488 18.0973L135.661 17.2627L136.826 16.8153L146.868 12.9595C147.773 12.6107 148.353 11.8562 148.353 11.0206V4.42529H143.967L143.966 4.42639Z" fill="#FE763C"/>
<path d="M76.062 4.47119V9.98737H68.1189C66.985 9.98737 65.9091 10.2067 64.9221 10.6377C63.9373 11.0687 63.0589 11.6751 62.3121 12.4362C61.5642 13.1995 60.9764 14.09 60.5575 15.0824C60.1385 16.0771 59.9258 17.1606 59.9258 18.3044C59.9258 19.4482 60.1385 20.5317 60.5575 21.5264C60.9764 22.5188 61.5664 23.4093 62.3121 24.1726C63.0578 24.9359 63.9362 25.5412 64.9221 25.9711C65.9091 26.4043 66.9828 26.6214 68.1189 26.6214H79.3146V4.47119H76.0631H76.062ZM76.062 23.3468H68.12C67.2087 23.3282 66.373 23.0902 65.6339 22.6417C64.8925 22.192 64.2916 21.5812 63.8463 20.8245C63.4011 20.0722 63.1763 19.2245 63.1763 18.3055C63.1763 17.3865 63.4011 16.5355 63.8463 15.77C64.2916 15.0046 64.8936 14.3893 65.6339 13.9386C66.3708 13.489 67.2065 13.2642 68.1156 13.2642H76.0587V23.3457L76.0609 23.3479L76.062 23.3468Z" fill="#FE763C"/>
<path d="M57.2343 10.0093H53.8555V26.6247H57.2343V10.0093Z" fill="#FE763C"/>
<path d="M55.5202 7.95855H53.8555V6.24339C53.8555 5.26517 54.6231 4.47119 55.5695 4.47119H57.2343V6.18636C57.2343 7.16458 56.4666 7.96075 55.5202 7.96075V7.95855Z" fill="#FE763C"/>
<path d="M203.402 14.8377L205.831 16.9992L212.997 10.0081H208.199L203.402 14.8366V14.8377Z" fill="#FE763C"/>
<path d="M185.836 7.93553H184.184V6.23352C184.184 5.26079 184.946 4.47339 185.885 4.47339H187.537V6.1754C187.537 7.14813 186.776 7.93553 185.836 7.93553Z" fill="#FE763C"/>
<path d="M31.7087 33.6114H25.1211V24.735C25.1211 21.6863 28.0755 19.2156 31.7087 19.2156V33.6158V33.6125V33.6114Z" fill="#FE763C"/>
<path d="M0.0351562 0.40332H6.62276V5.93265C6.62276 8.98135 3.66947 11.4521 0.0351562 11.4521V0.40332Z" fill="#FE763C"/>
<path d="M25.1266 0.384766V8.79721L22.4727 9.816C22.42 9.83793 22.3663 9.85877 22.3103 9.8807L2.22731 17.5935C0.869647 18.1166 0 19.2483 0 20.5007V33.6112H6.58761V24.5715C6.58761 24.4914 6.58761 24.4114 6.59638 24.3346V21.9746L9.39614 20.8977C9.39614 20.8977 9.40491 20.8944 9.4082 20.8911L12.6686 19.6387L14.4144 18.9676L29.477 13.1827C30.8336 12.6596 31.7043 11.5279 31.7043 10.2755V0.384766H25.1266Z" fill="#FE763C"/>
</g>
<defs>
<clipPath id="clip0_12497_2369">
<rect width="213" height="33.2297" fill="white" transform="translate(0 0.38501)"/>
</clipPath>
</defs>
</svg>
