<?xml version="1.0" encoding="UTF-8" standalone="no"?>
<svg
   xmlns:dc="http://purl.org/dc/elements/1.1/"
   xmlns:cc="http://creativecommons.org/ns#"
   xmlns:rdf="http://www.w3.org/1999/02/22-rdf-syntax-ns#"
   xmlns:svg="http://www.w3.org/2000/svg"
   xmlns="http://www.w3.org/2000/svg"
   xmlns:sodipodi="http://sodipodi.sourceforge.net/DTD/sodipodi-0.dtd"
   xmlns:inkscape="http://www.inkscape.org/namespaces/inkscape"
   width="526.13495"
   height="110.1536"
   viewBox="0 0 139.20654 29.144809"
   version="1.1"
   id="svg8"
   sodipodi:docname="T-Mobile_US_Logo_2020_RGB_Magenta_on_Transparent.svg"
   inkscape:version="0.92.4 (5da689c313, 2019-01-14)">
  <defs
     id="defs2">
    <style
       id="style48">.cls-1{fill:none;}.cls-2{fill:#e20074;}</style>
  </defs>
  <sodipodi:namedview
     id="base"
     pagecolor="#ffffff"
     bordercolor="#666666"
     borderopacity="1.0"
     inkscape:pageopacity="0.0"
     inkscape:pageshadow="2"
     inkscape:zoom="2.1234568"
     inkscape:cx="263.08748"
     inkscape:cy="54.840714"
     inkscape:document-units="px"
     inkscape:current-layer="g4653"
     showgrid="false"
     fit-margin-top="0"
     fit-margin-left="0"
     fit-margin-right="0"
     fit-margin-bottom="0"
     units="px"
     inkscape:window-width="1920"
     inkscape:window-height="1001"
     inkscape:window-x="-9"
     inkscape:window-y="-9"
     inkscape:window-maximized="1" />
  <metadata
     id="metadata5">
    <rdf:RDF>
      <cc:Work
         rdf:about="">
        <dc:format>image/svg+xml</dc:format>
        <dc:type
           rdf:resource="http://purl.org/dc/dcmitype/StillImage" />
        <dc:title></dc:title>
      </cc:Work>
    </rdf:RDF>
  </metadata>
  <g
     inkscape:label="Layer 1"
     inkscape:groupmode="layer"
     id="layer1"
     transform="translate(-31.140837,-61.831822)">
    <g
       id="g4653"
       inkscape:label="g4653">
      <path
         style="fill:#e20074;fill-opacity:1;stroke-width:0.26461601"
         inkscape:connector-curvature="0"
         class="cls-2"
         d="m 167.13759,72.543478 v -1.974036 h -0.62185 v -0.293723 h 1.5877 v 0.293723 h -0.62185 v 1.974036 z m 1.22782,0 v -2.267759 h 0.43661 l 0.56099,1.839081 0.54246,-1.839081 h 0.44191 v 2.267759 h -0.3096 v -1.791451 l -0.51071,1.791451 h -0.33871 l -0.52923,-1.75705 v 1.75705 z"
         id="TM" />
      <path
         style="fill:#e20074;fill-opacity:1;stroke-width:0.26461601"
         inkscape:connector-curvature="0"
         inkscape:label="e"
         class="cls-2"
         d="m 163.39857,87.57896 a 4.5963801,4.5963801 0 0 1 -3.66229,1.738527 q -2.81551,0 -3.96924,-2.773176 -0.83089,-1.968743 -0.84942,-6.064999 h 11.58754 q -0.11908,-3.477054 -1.30191,-5.821552 -2.19102,-4.382041 -6.56513,-4.382041 -2.93723,0 -5.0277,2.339205 -2.64616,2.961053 -2.64616,7.885557 0,5.361121 2.64616,8.203097 2.1328,2.273051 5.46697,2.273051 4.52758,0 7.2002,-5.358474 l -1.26222,-0.66154 a 12.436952,12.436952 0 0 1 -1.6168,2.622345 z m -8.00993,-12.172337 q 1.00819,-3.635824 3.45588,-3.63847 2.1725,0 3.1754,2.958407 a 13.672709,13.672709 0 0 1 0.56098,4.262964 h -7.62623 a 13.892341,13.892341 0 0 1 0.43397,-3.580255 z"
         id="path65" />
      <path
         style="fill:#e20074;fill-opacity:1;stroke-width:0.26461601"
         inkscape:connector-curvature="0"
         inkscape:label="l"
         class="cls-2"
         d="m 147.33902,88.5501 q -0.52923,-0.600678 -0.52923,-2.910776 V 61.831822 l -6.20789,0.291077 v 1.304557 h 0.47631 q 1.19871,0 1.63268,0.516002 0.52923,0.579509 0.52923,2.879022 v 18.811552 q 0,2.318036 -0.52923,2.910776 -0.43133,0.529232 -1.63268,0.529232 h -0.68271 v 1.301911 h 9.24833 V 89.07404 h -0.68271 c -0.76739,-0.0053 -1.32044,-0.177293 -1.6221,-0.52394 z"
         id="path67" />
      <path
         class="cls-2"
         d="m 133.97062,66.552571 a 2.2518822,2.2518822 0 0 0 1.65385,-0.682709 2.2756977,2.2756977 0 0 0 0.66154,-1.637973 2.230713,2.230713 0 0 0 -0.68536,-1.632681 2.1380974,2.1380974 0 0 0 -1.58769,-0.682709 2.28099,2.28099 0 0 0 -1.65385,0.66154 2.1777898,2.1777898 0 0 0 -0.70653,1.65385 2.2333591,2.2333591 0 0 0 0.68536,1.637973 2.1883744,2.1883744 0 0 0 1.63268,0.682709 z"
         id="path57"
         inkscape:label="i_tittle"
         inkscape:connector-curvature="0"
         style="fill:#e20074;fill-opacity:1;stroke-width:0.26461601" />
      <path
         class="cls-2"
         d="m 136.59826,88.5501 q -0.52924,-0.574216 -0.52924,-2.910776 V 70.585319 l -6.1973,0.299016 v 1.323081 h 0.47366 c 0.79385,0 1.3469,0.166708 1.63797,0.494831 0.34136,0.38634 0.516,1.346896 0.516,2.879023 v 10.055408 c 0,1.545358 -0.17464,2.516498 -0.516,2.910776 q -0.43661,0.529232 -1.63797,0.529232 h -0.67477 v 1.301911 h 9.26156 v -1.301911 h -0.68271 q -1.21988,-0.0079 -1.6512,-0.526586 z"
         id="path69"
         inkscape:label="i_stem"
         inkscape:connector-curvature="0"
         style="fill:#e20074;fill-opacity:1;stroke-width:0.26461601" />
      <path
         style="fill:#e20074;fill-opacity:1;stroke-width:0.26461601"
         inkscape:connector-curvature="0"
         inkscape:label="b"
         class="cls-2"
         d="m 120.67366,70.463596 a 5.6495518,5.6495518 0 0 0 -3.64111,1.262218 4.9456732,4.9456732 0 0 0 -1.38659,1.905236 V 61.831822 l -6.04383,0.291077 v 1.304557 h 0.31225 q 1.19871,0 1.63532,0.516002 0.51601,0.558339 0.51601,2.857852 v 19.391062 q 0,2.609113 -0.18524,3.455885 c -0.0159,0.08203 -0.09,0.325477 -0.22757,0.722401 h 1.40512 c 0.31753,-0.510708 0.61655,-0.95791 0.89175,-1.344249 0.30166,-0.441909 0.57686,-0.66154 0.8256,-0.66154 a 1.2331106,1.2331106 0 0 1 0.72505,0.333416 c 0.71976,0.59274 1.18548,0.95791 1.40776,1.095511 a 6.2608148,6.2608148 0 0 0 3.45588,1.013479 q 3.47706,0 5.60722,-2.876376 2.27834,-3.082777 2.27834,-7.657988 0,-4.800134 -2.54561,-7.636818 a 6.4857384,6.4857384 0 0 0 -5.03035,-2.172497 z m -0.74357,18.853891 a 3.4770544,3.4770544 0 0 1 -1.96609,-0.576863 4.5487492,4.5487492 0 0 1 -1.61416,-1.907882 q -1.05847,-2.254528 -1.05847,-6.395769 0,-5.358474 2.23336,-7.409248 a 3.8210552,3.8210552 0 0 1 2.59853,-1.084926 q 1.9661,0 2.96106,2.069298 1.05846,2.236005 1.05846,6.332261 -0.003,8.973129 -4.20475,8.973129 z"
         id="path63" />
      <path
         style="fill:#e20074;fill-opacity:1;stroke-width:0.26461601"
         inkscape:connector-curvature="0"
         inkscape:label="o"
         class="cls-2"
         d="m 100.00715,70.275719 a 7.8114646,7.8114646 0 0 0 -6.435457,3.125115 q -2.151328,2.730837 -2.151328,7.224017 0,4.49318 2.151328,7.224017 2.439759,3.127761 6.313738,3.122469 4.096259,0 6.538659,-3.122469 2.15133,-2.754653 2.15133,-7.266356 0,-4.445549 -2.15133,-7.181678 a 7.7929415,7.7929415 0 0 0 -6.41694,-3.125115 z m 0,19.332845 q -2.273047,0 -3.310342,-2.116928 -1.161664,-2.394775 -1.161664,-7.081124 0,-5.64426 1.884066,-7.59448 a 3.5141006,3.5141006 0 0 1 2.5853,-1.180187 3.2733,3.2733 0 0 1 1.71736,0.476309 4.5672723,4.5672723 0 0 1 1.75175,2.077235 q 0.97379,2.169852 0.97379,6.350785 0.0106,9.071036 -4.44026,9.06839 z"
         id="path61" />
      <path
         style="fill:#e20074;fill-opacity:1;stroke-width:0.26461601"
         inkscape:connector-curvature="0"
         inkscape:label="M"
         class="cls-2"
         d="M 76.541006,82.900548 70.497177,62.122899 H 62.29408 v 1.352188 h 0.793848 a 4.8186575,4.8186575 0 0 1 1.44745,0.164062 1.6300346,1.6300346 0 0 1 1.098156,1.278095 9.2377449,9.2377449 0 0 1 0.12437,1.923759 v 16.371792 a 24.942705,24.942705 0 0 1 -0.145539,3.246839 c -0.1376,0.841479 -0.441909,1.471265 -0.912925,1.884066 a 2.5006213,2.5006213 0 0 1 -1.714712,0.66154 h -0.682709 v 1.365418 h 8.753497 V 89.00524 h -0.558339 q -2.299513,0 -2.910776,-2.21219 Q 67.38,85.999202 67.38,83.212795 v -18.52312 l 7.448941,25.680983 h 1.304557 l 7.47011,-25.667753 v 20.142571 a 17.641949,17.641949 0 0 1 -0.12437,2.341852 1.8523121,1.8523121 0 0 1 -0.516001,1.177541 c -0.441909,0.428678 -1.193418,0.640371 -2.257175,0.640371 h -0.359877 v 1.365418 h 10.61904 V 89.00524 h -0.579509 c -1.463327,0 -2.347144,-0.431324 -2.64616,-1.301911 -0.153477,-0.471016 -0.22757,-1.420988 -0.22757,-2.857853 V 67.645435 a 18.634259,18.634259 0 0 1 0.121723,-2.360374 1.8205581,1.8205581 0 0 1 0.529232,-1.159018 c 0.428678,-0.439263 1.172249,-0.658894 2.236006,-0.658894 h 0.579509 v -1.34425 h -8.271897 z"
         id="path59" />
      <polygon
         style="fill:#e20074;fill-opacity:1"
         inkscape:label="digit_2"
         class="cls-2"
         points="96.75,121.42 86.33,121.42 86.33,143.04 107.94,143.04 107.94,121.42 "
         id="polygon71"
         transform="matrix(0.26461601,0,0,0.26461601,25.740025,42.988516)" />
      <path
         style="fill:#e20074;fill-opacity:1;stroke-width:0.26461601"
         inkscape:connector-curvature="0"
         inkscape:label="T"
         class="cls-2"
         d="m 31.423977,62.122899 -0.28314,9.968085 1.500373,0.264616 q 0.415447,-4.405856 2.310098,-6.538661 c 1.32308,-1.487142 3.159515,-2.265113 5.511952,-2.331267 v 20.843803 c 0,1.823204 -0.264616,3.003392 -0.793849,3.551147 -0.452493,0.465724 -1.217233,0.748863 -2.29422,0.854709 q -0.476309,0.03969 -1.632681,0.03969 v 1.587696 h 13.945264 v -1.587696 c -0.772679,0 -1.32308,0 -1.635327,-0.03969 C 46.97546,88.629485 46.200135,88.346346 45.760872,87.880622 45.23164,87.332867 44.967024,86.152679 44.967024,84.329475 V 63.475087 c 2.352436,0.06615 4.186225,0.844125 5.514598,2.331267 q 1.89465,2.132805 2.312744,6.538662 L 54.292092,72.0804 54.019538,62.122899 Z"
         id="path73" />
      <polygon
         style="fill:#e20074;fill-opacity:1"
         inkscape:label="digit_1"
         class="cls-2"
         points="42.03,143.04 42.03,121.42 31.34,121.42 20.41,121.42 20.41,143.04 "
         id="polygon75"
         transform="matrix(0.26461601,0,0,0.26461601,25.740025,42.988516)" />
    </g>
  </g>
</svg>
